<svg width="1400" height="420" viewBox="0 0 1400 420" fill="none" xmlns="http://www.w3.org/2000/svg" role="img" aria-labelledby="title desc">
  <title id="title">Git Viewer for Obsidian</title>
  <desc id="desc">A straight compact status hero for local Git status and selected commits.</desc>
  <rect width="1400" height="420" fill="#111318"/>
  <rect x="48" y="48" width="1304" height="324" rx="18" fill="#181b22" stroke="#303642"/>
  <rect x="48" y="48" width="1304" height="54" rx="18" fill="#222633"/>
  <rect x="48" y="82" width="1304" height="20" fill="#222633"/>
  <circle cx="84" cy="75" r="8" fill="#ef4444"/>
  <circle cx="112" cy="75" r="8" fill="#f59e0b"/>
  <circle cx="140" cy="75" r="8" fill="#22c55e"/>
  <text x="86" y="162" fill="#f8fafc" font-family="Inter, Arial, sans-serif" font-size="50" font-weight="850">Git Viewer</text>
  <text x="88" y="204" fill="#cbd5e1" font-family="Inter, Arial, sans-serif" font-size="20">Git status and selected commits for vault files</text>
  <g transform="translate(88 246)">
    <rect width="112" height="34" rx="8" fill="#7c3aed"/>
    <text x="24" y="23" fill="#ffffff" font-family="Inter, Arial, sans-serif" font-size="14" font-weight="700">Status</text>
    <rect x="124" width="118" height="34" rx="8" fill="#1f2937" stroke="#303642"/>
    <text x="148" y="23" fill="#e2e8f0" font-family="Inter, Arial, sans-serif" font-size="14" font-weight="700">Refresh</text>
    <rect x="254" width="178" height="34" rx="8" fill="#0f3d2e" stroke="#166534"/>
    <text x="282" y="23" fill="#bbf7d0" font-family="Inter, Arial, sans-serif" font-size="14" font-weight="700">Commit selected</text>
  </g>
  <g transform="translate(782 112)">
    <rect width="490" height="240" rx="14" fill="#111318" stroke="#343b49"/>
    <text x="28" y="48" fill="#f8fafc" font-family="Inter, Arial, sans-serif" font-size="24" font-weight="800">main</text>
    <text x="390" y="48" fill="#94a3b8" font-family="Menlo, Consolas, monospace" font-size="14">vault</text>
    <line x1="28" y1="70" x2="462" y2="70" stroke="#343b49"/>
    <text x="28" y="108" fill="#94a3b8" font-family="Inter, Arial, sans-serif" font-size="13" font-weight="800">CHANGED</text>
    <rect x="28" y="124" width="434" height="42" rx="8" fill="#1a1e27" stroke="#303642"/>
    <text x="48" y="150" fill="#fde68a" font-family="Menlo, Consolas, monospace" font-size="14">M</text>
    <text x="92" y="150" fill="#e2e8f0" font-family="Menlo, Consolas, monospace" font-size="14">10_notes/daily.md</text>
    <text x="28" y="202" fill="#94a3b8" font-family="Inter, Arial, sans-serif" font-size="13" font-weight="800">UNTRACKED</text>
    <rect x="28" y="218" width="434" height="42" rx="8" fill="#1a1e27" stroke="#303642"/>
    <text x="48" y="244" fill="#bae6fd" font-family="Menlo, Consolas, monospace" font-size="14">??</text>
    <text x="92" y="244" fill="#e2e8f0" font-family="Menlo, Consolas, monospace" font-size="14">ideas/git-viewer.md</text>
  </g>
</svg>
